<mxfile host="app.diagrams.net" modified="2022-12-06T09:40:05.776Z" agent="5.0 (Windows NT 10.0; WOW64) AppleWebKit/537.36 (KHTML, like Gecko) Chrome/86.0.4240.198 Safari/537.36" etag="8UIWErIcl0t6AeBtRDkn" version="20.6.0" type="github">
  <diagram id="C5RBs43oDa-KdzZeNtuy" name="Page-1">
    <mxGraphModel dx="813" dy="2747" grid="1" gridSize="10" guides="1" tooltips="1" connect="1" arrows="1" fold="1" page="1" pageScale="1" pageWidth="827" pageHeight="1169" math="0" shadow="0">
      <root>
        <mxCell id="WIyWlLk6GJQsqaUBKTNV-0" />
        <mxCell id="WIyWlLk6GJQsqaUBKTNV-1" parent="WIyWlLk6GJQsqaUBKTNV-0" />
        <mxCell id="YACIBhElaQEuO_AgYYL1-11" value="" style="edgeStyle=orthogonalEdgeStyle;rounded=0;orthogonalLoop=1;jettySize=auto;html=1;" parent="WIyWlLk6GJQsqaUBKTNV-1" source="YACIBhElaQEuO_AgYYL1-0" target="YACIBhElaQEuO_AgYYL1-2" edge="1">
          <mxGeometry relative="1" as="geometry" />
        </mxCell>
        <mxCell id="YACIBhElaQEuO_AgYYL1-0" value="Init&amp;nbsp;Browser" style="rounded=1;whiteSpace=wrap;html=1;absoluteArcSize=1;arcSize=14;strokeWidth=2;" parent="WIyWlLk6GJQsqaUBKTNV-1" vertex="1">
          <mxGeometry x="184" y="-2300" width="100" height="30" as="geometry" />
        </mxCell>
        <mxCell id="YACIBhElaQEuO_AgYYL1-15" style="edgeStyle=orthogonalEdgeStyle;rounded=0;orthogonalLoop=1;jettySize=auto;html=1;exitX=0.5;exitY=1;exitDx=0;exitDy=0;entryX=0.5;entryY=0;entryDx=0;entryDy=0;entryPerimeter=0;" parent="WIyWlLk6GJQsqaUBKTNV-1" source="YACIBhElaQEuO_AgYYL1-1" target="YACIBhElaQEuO_AgYYL1-4" edge="1">
          <mxGeometry relative="1" as="geometry" />
        </mxCell>
        <mxCell id="YACIBhElaQEuO_AgYYL1-1" value="Jump&amp;nbsp;to&amp;nbsp;MMO&amp;nbsp;Login" style="rounded=1;whiteSpace=wrap;html=1;absoluteArcSize=1;arcSize=14;strokeWidth=2;" parent="WIyWlLk6GJQsqaUBKTNV-1" vertex="1">
          <mxGeometry x="169" y="-2190" width="130" height="30" as="geometry" />
        </mxCell>
        <mxCell id="YACIBhElaQEuO_AgYYL1-14" style="edgeStyle=orthogonalEdgeStyle;rounded=0;orthogonalLoop=1;jettySize=auto;html=1;exitX=0.5;exitY=1;exitDx=0;exitDy=0;entryX=0.5;entryY=0;entryDx=0;entryDy=0;" parent="WIyWlLk6GJQsqaUBKTNV-1" source="YACIBhElaQEuO_AgYYL1-2" target="YACIBhElaQEuO_AgYYL1-1" edge="1">
          <mxGeometry relative="1" as="geometry" />
        </mxCell>
        <mxCell id="YACIBhElaQEuO_AgYYL1-2" value="Press&amp;nbsp;Start" style="rounded=1;whiteSpace=wrap;html=1;absoluteArcSize=1;arcSize=14;strokeWidth=2;" parent="WIyWlLk6GJQsqaUBKTNV-1" vertex="1">
          <mxGeometry x="184" y="-2250" width="100" height="30" as="geometry" />
        </mxCell>
        <mxCell id="YACIBhElaQEuO_AgYYL1-8" style="edgeStyle=orthogonalEdgeStyle;rounded=0;orthogonalLoop=1;jettySize=auto;html=1;exitX=1;exitY=0.5;exitDx=0;exitDy=0;exitPerimeter=0;" parent="WIyWlLk6GJQsqaUBKTNV-1" source="YACIBhElaQEuO_AgYYL1-4" target="YACIBhElaQEuO_AgYYL1-5" edge="1">
          <mxGeometry relative="1" as="geometry" />
        </mxCell>
        <mxCell id="YACIBhElaQEuO_AgYYL1-9" value="" style="edgeStyle=orthogonalEdgeStyle;rounded=0;orthogonalLoop=1;jettySize=auto;html=1;" parent="WIyWlLk6GJQsqaUBKTNV-1" source="YACIBhElaQEuO_AgYYL1-4" target="YACIBhElaQEuO_AgYYL1-7" edge="1">
          <mxGeometry relative="1" as="geometry" />
        </mxCell>
        <mxCell id="YACIBhElaQEuO_AgYYL1-4" value="Captcha&amp;nbsp;Page?" style="strokeWidth=2;html=1;shape=mxgraph.flowchart.decision;whiteSpace=wrap;" parent="WIyWlLk6GJQsqaUBKTNV-1" vertex="1">
          <mxGeometry x="179" y="-2140" width="110" height="50" as="geometry" />
        </mxCell>
        <mxCell id="YACIBhElaQEuO_AgYYL1-10" value="" style="edgeStyle=orthogonalEdgeStyle;rounded=0;orthogonalLoop=1;jettySize=auto;html=1;" parent="WIyWlLk6GJQsqaUBKTNV-1" source="YACIBhElaQEuO_AgYYL1-5" target="YACIBhElaQEuO_AgYYL1-6" edge="1">
          <mxGeometry relative="1" as="geometry" />
        </mxCell>
        <mxCell id="YACIBhElaQEuO_AgYYL1-5" value="Call API" style="rounded=1;whiteSpace=wrap;html=1;absoluteArcSize=1;arcSize=14;strokeWidth=2;" parent="WIyWlLk6GJQsqaUBKTNV-1" vertex="1">
          <mxGeometry x="314" y="-2130" width="100" height="30" as="geometry" />
        </mxCell>
        <mxCell id="YACIBhElaQEuO_AgYYL1-16" style="edgeStyle=orthogonalEdgeStyle;rounded=0;orthogonalLoop=1;jettySize=auto;html=1;exitX=0;exitY=0.5;exitDx=0;exitDy=0;" parent="WIyWlLk6GJQsqaUBKTNV-1" source="YACIBhElaQEuO_AgYYL1-6" edge="1">
          <mxGeometry relative="1" as="geometry">
            <mxPoint x="234" y="-2065.0689655172414" as="targetPoint" />
          </mxGeometry>
        </mxCell>
        <mxCell id="YACIBhElaQEuO_AgYYL1-6" value="Enter and Submit" style="rounded=1;whiteSpace=wrap;html=1;absoluteArcSize=1;arcSize=14;strokeWidth=2;" parent="WIyWlLk6GJQsqaUBKTNV-1" vertex="1">
          <mxGeometry x="314" y="-2080" width="100" height="30" as="geometry" />
        </mxCell>
        <mxCell id="kg2VcP-rL61T63yrzpJs-7" style="edgeStyle=orthogonalEdgeStyle;rounded=0;orthogonalLoop=1;jettySize=auto;html=1;exitX=0.5;exitY=1;exitDx=0;exitDy=0;" edge="1" parent="WIyWlLk6GJQsqaUBKTNV-1" source="YACIBhElaQEuO_AgYYL1-7" target="kg2VcP-rL61T63yrzpJs-0">
          <mxGeometry relative="1" as="geometry" />
        </mxCell>
        <mxCell id="YACIBhElaQEuO_AgYYL1-7" value="Enter account and submit" style="rounded=1;whiteSpace=wrap;html=1;absoluteArcSize=1;arcSize=14;strokeWidth=2;" parent="WIyWlLk6GJQsqaUBKTNV-1" vertex="1">
          <mxGeometry x="184" y="-2040" width="100" height="30" as="geometry" />
        </mxCell>
        <mxCell id="kg2VcP-rL61T63yrzpJs-8" style="edgeStyle=orthogonalEdgeStyle;rounded=0;orthogonalLoop=1;jettySize=auto;html=1;exitX=0.5;exitY=1;exitDx=0;exitDy=0;" edge="1" parent="WIyWlLk6GJQsqaUBKTNV-1" source="kg2VcP-rL61T63yrzpJs-0" target="kg2VcP-rL61T63yrzpJs-1">
          <mxGeometry relative="1" as="geometry" />
        </mxCell>
        <mxCell id="kg2VcP-rL61T63yrzpJs-0" value="Jump&amp;nbsp;to&amp;nbsp;MMO&amp;nbsp;New Vote Page" style="rounded=1;whiteSpace=wrap;html=1;absoluteArcSize=1;arcSize=14;strokeWidth=2;" vertex="1" parent="WIyWlLk6GJQsqaUBKTNV-1">
          <mxGeometry x="173.5" y="-1970" width="121" height="40" as="geometry" />
        </mxCell>
        <mxCell id="kg2VcP-rL61T63yrzpJs-6" style="edgeStyle=orthogonalEdgeStyle;rounded=0;orthogonalLoop=1;jettySize=auto;html=1;exitX=1;exitY=0.5;exitDx=0;exitDy=0;exitPerimeter=0;entryX=0;entryY=0.5;entryDx=0;entryDy=0;" edge="1" parent="WIyWlLk6GJQsqaUBKTNV-1" source="kg2VcP-rL61T63yrzpJs-1" target="kg2VcP-rL61T63yrzpJs-3">
          <mxGeometry relative="1" as="geometry" />
        </mxCell>
        <mxCell id="kg2VcP-rL61T63yrzpJs-11" style="edgeStyle=orthogonalEdgeStyle;rounded=0;orthogonalLoop=1;jettySize=auto;html=1;entryX=0.5;entryY=0;entryDx=0;entryDy=0;" edge="1" parent="WIyWlLk6GJQsqaUBKTNV-1" source="kg2VcP-rL61T63yrzpJs-1" target="kg2VcP-rL61T63yrzpJs-9">
          <mxGeometry relative="1" as="geometry" />
        </mxCell>
        <mxCell id="kg2VcP-rL61T63yrzpJs-1" value="Captcha&amp;nbsp;Page?" style="strokeWidth=2;html=1;shape=mxgraph.flowchart.decision;whiteSpace=wrap;" vertex="1" parent="WIyWlLk6GJQsqaUBKTNV-1">
          <mxGeometry x="179" y="-1880" width="110" height="50" as="geometry" />
        </mxCell>
        <mxCell id="kg2VcP-rL61T63yrzpJs-2" value="" style="edgeStyle=orthogonalEdgeStyle;rounded=0;orthogonalLoop=1;jettySize=auto;html=1;" edge="1" parent="WIyWlLk6GJQsqaUBKTNV-1" source="kg2VcP-rL61T63yrzpJs-3" target="kg2VcP-rL61T63yrzpJs-4">
          <mxGeometry relative="1" as="geometry" />
        </mxCell>
        <mxCell id="kg2VcP-rL61T63yrzpJs-3" value="Call API" style="rounded=1;whiteSpace=wrap;html=1;absoluteArcSize=1;arcSize=14;strokeWidth=2;" vertex="1" parent="WIyWlLk6GJQsqaUBKTNV-1">
          <mxGeometry x="314" y="-1870" width="100" height="30" as="geometry" />
        </mxCell>
        <mxCell id="kg2VcP-rL61T63yrzpJs-12" style="edgeStyle=orthogonalEdgeStyle;rounded=0;orthogonalLoop=1;jettySize=auto;html=1;exitX=0;exitY=0.5;exitDx=0;exitDy=0;" edge="1" parent="WIyWlLk6GJQsqaUBKTNV-1" source="kg2VcP-rL61T63yrzpJs-4">
          <mxGeometry relative="1" as="geometry">
            <mxPoint x="230" y="-1805" as="targetPoint" />
          </mxGeometry>
        </mxCell>
        <mxCell id="kg2VcP-rL61T63yrzpJs-4" value="Enter and Submit" style="rounded=1;whiteSpace=wrap;html=1;absoluteArcSize=1;arcSize=14;strokeWidth=2;" vertex="1" parent="WIyWlLk6GJQsqaUBKTNV-1">
          <mxGeometry x="314" y="-1820" width="100" height="30" as="geometry" />
        </mxCell>
        <mxCell id="kg2VcP-rL61T63yrzpJs-9" value="Call Showvote function" style="rounded=1;whiteSpace=wrap;html=1;absoluteArcSize=1;arcSize=14;strokeWidth=2;" vertex="1" parent="WIyWlLk6GJQsqaUBKTNV-1">
          <mxGeometry x="173.5" y="-1780" width="121" height="37" as="geometry" />
        </mxCell>
        <mxCell id="kg2VcP-rL61T63yrzpJs-13" value="Call API" style="rounded=1;whiteSpace=wrap;html=1;absoluteArcSize=1;arcSize=14;strokeWidth=2;" vertex="1" parent="WIyWlLk6GJQsqaUBKTNV-1">
          <mxGeometry x="184" y="-1720" width="100" height="30" as="geometry" />
        </mxCell>
        <mxCell id="kg2VcP-rL61T63yrzpJs-14" value="Enter Google Captcha code" style="rounded=1;whiteSpace=wrap;html=1;absoluteArcSize=1;arcSize=14;strokeWidth=2;" vertex="1" parent="WIyWlLk6GJQsqaUBKTNV-1">
          <mxGeometry x="184" y="-1660" width="100" height="30" as="geometry" />
        </mxCell>
        <mxCell id="kg2VcP-rL61T63yrzpJs-15" value="Submit" style="rounded=1;whiteSpace=wrap;html=1;absoluteArcSize=1;arcSize=14;strokeWidth=2;" vertex="1" parent="WIyWlLk6GJQsqaUBKTNV-1">
          <mxGeometry x="184" y="-1600" width="100" height="30" as="geometry" />
        </mxCell>
        <mxCell id="kg2VcP-rL61T63yrzpJs-25" style="edgeStyle=orthogonalEdgeStyle;rounded=0;orthogonalLoop=1;jettySize=auto;html=1;exitX=0.5;exitY=1;exitDx=0;exitDy=0;exitPerimeter=0;entryX=0.5;entryY=0;entryDx=0;entryDy=0;" edge="1" parent="WIyWlLk6GJQsqaUBKTNV-1" source="kg2VcP-rL61T63yrzpJs-16" target="kg2VcP-rL61T63yrzpJs-18">
          <mxGeometry relative="1" as="geometry" />
        </mxCell>
        <mxCell id="kg2VcP-rL61T63yrzpJs-28" style="edgeStyle=orthogonalEdgeStyle;rounded=0;orthogonalLoop=1;jettySize=auto;html=1;exitX=1;exitY=0.5;exitDx=0;exitDy=0;exitPerimeter=0;entryX=0;entryY=0.5;entryDx=0;entryDy=0;" edge="1" parent="WIyWlLk6GJQsqaUBKTNV-1" source="kg2VcP-rL61T63yrzpJs-16" target="kg2VcP-rL61T63yrzpJs-17">
          <mxGeometry relative="1" as="geometry" />
        </mxCell>
        <mxCell id="kg2VcP-rL61T63yrzpJs-16" value="Vote Success Page?" style="strokeWidth=2;html=1;shape=mxgraph.flowchart.decision;whiteSpace=wrap;" vertex="1" parent="WIyWlLk6GJQsqaUBKTNV-1">
          <mxGeometry x="179" y="-1540" width="110" height="50" as="geometry" />
        </mxCell>
        <mxCell id="kg2VcP-rL61T63yrzpJs-29" style="edgeStyle=orthogonalEdgeStyle;rounded=0;orthogonalLoop=1;jettySize=auto;html=1;exitX=0.5;exitY=1;exitDx=0;exitDy=0;" edge="1" parent="WIyWlLk6GJQsqaUBKTNV-1" source="kg2VcP-rL61T63yrzpJs-17">
          <mxGeometry relative="1" as="geometry">
            <mxPoint x="230" y="-1410" as="targetPoint" />
            <Array as="points">
              <mxPoint x="370" y="-1410" />
              <mxPoint x="240" y="-1410" />
            </Array>
          </mxGeometry>
        </mxCell>
        <mxCell id="kg2VcP-rL61T63yrzpJs-17" value="Log Error" style="rounded=1;whiteSpace=wrap;html=1;absoluteArcSize=1;arcSize=14;strokeWidth=2;" vertex="1" parent="WIyWlLk6GJQsqaUBKTNV-1">
          <mxGeometry x="320" y="-1530" width="100" height="30" as="geometry" />
        </mxCell>
        <mxCell id="kg2VcP-rL61T63yrzpJs-27" style="edgeStyle=orthogonalEdgeStyle;rounded=0;orthogonalLoop=1;jettySize=auto;html=1;exitX=0.5;exitY=1;exitDx=0;exitDy=0;entryX=0.5;entryY=0;entryDx=0;entryDy=0;entryPerimeter=0;" edge="1" parent="WIyWlLk6GJQsqaUBKTNV-1" source="kg2VcP-rL61T63yrzpJs-18" target="kg2VcP-rL61T63yrzpJs-20">
          <mxGeometry relative="1" as="geometry" />
        </mxCell>
        <mxCell id="kg2VcP-rL61T63yrzpJs-18" value="Jump to Log out" style="rounded=1;whiteSpace=wrap;html=1;absoluteArcSize=1;arcSize=14;strokeWidth=2;" vertex="1" parent="WIyWlLk6GJQsqaUBKTNV-1">
          <mxGeometry x="184" y="-1456" width="100" height="30" as="geometry" />
        </mxCell>
        <mxCell id="kg2VcP-rL61T63yrzpJs-19" style="edgeStyle=orthogonalEdgeStyle;rounded=0;orthogonalLoop=1;jettySize=auto;html=1;exitX=1;exitY=0.5;exitDx=0;exitDy=0;exitPerimeter=0;entryX=0;entryY=0.5;entryDx=0;entryDy=0;" edge="1" parent="WIyWlLk6GJQsqaUBKTNV-1" source="kg2VcP-rL61T63yrzpJs-20" target="kg2VcP-rL61T63yrzpJs-22">
          <mxGeometry relative="1" as="geometry" />
        </mxCell>
        <mxCell id="kg2VcP-rL61T63yrzpJs-20" value="Captcha&amp;nbsp;Page?" style="strokeWidth=2;html=1;shape=mxgraph.flowchart.decision;whiteSpace=wrap;" vertex="1" parent="WIyWlLk6GJQsqaUBKTNV-1">
          <mxGeometry x="179" y="-1391" width="110" height="50" as="geometry" />
        </mxCell>
        <mxCell id="kg2VcP-rL61T63yrzpJs-21" value="" style="edgeStyle=orthogonalEdgeStyle;rounded=0;orthogonalLoop=1;jettySize=auto;html=1;" edge="1" parent="WIyWlLk6GJQsqaUBKTNV-1" source="kg2VcP-rL61T63yrzpJs-22" target="kg2VcP-rL61T63yrzpJs-24">
          <mxGeometry relative="1" as="geometry" />
        </mxCell>
        <mxCell id="kg2VcP-rL61T63yrzpJs-22" value="Call API" style="rounded=1;whiteSpace=wrap;html=1;absoluteArcSize=1;arcSize=14;strokeWidth=2;" vertex="1" parent="WIyWlLk6GJQsqaUBKTNV-1">
          <mxGeometry x="320" y="-1380" width="100" height="30" as="geometry" />
        </mxCell>
        <mxCell id="kg2VcP-rL61T63yrzpJs-24" value="Enter and Submit" style="rounded=1;whiteSpace=wrap;html=1;absoluteArcSize=1;arcSize=14;strokeWidth=2;" vertex="1" parent="WIyWlLk6GJQsqaUBKTNV-1">
          <mxGeometry x="320" y="-1330" width="100" height="30" as="geometry" />
        </mxCell>
      </root>
    </mxGraphModel>
  </diagram>
</mxfile>
